Coordinates
version=1
nRows=17
nColumns=24
inDegrees=yes

Units are S.I. units (second, meters, Newtons, ...)
Angles are in degrees.

endheader
time	pelvis_tilt	pelvis_list	pelvis_rotation	pelvis_tx	pelvis_ty	pelvis_tz	hip_flexion_r	hip_adduction_r	hip_rotation_r	knee_angle_r	ankle_angle_r	subtalar_angle_r	mtp_angle_r	hip_flexion_l	hip_adduction_l	hip_rotation_l	knee_angle_l	ankle_angle_l	subtalar_angle_l	mtp_angle_l	lumbar_extension	lumbar_bending	lumbar_rotation
      3.65500000	     -9.81037192	     -9.77427159	      7.54740009	     -2.73907713	     -0.02110751	      0.46324509	     22.89127580	      8.53877878	    -10.20396791	    -13.51160760	     -7.76224770	     -3.38307728	      5.11639840	     14.30150221	    -10.94238999	      4.69234871	    -54.86618497	    -28.98699263	      0.34171919	     28.69141422	      9.57529340	      7.82970142	     -6.54261316
      3.66000000	     -9.67251324	     -9.82672581	      7.49349039	     -2.73334527	     -0.02056562	      0.46399561	     22.26339762	      8.77704714	    -10.14981018	    -13.33022885	     -7.42377137	     -3.33762289	      5.29689466	     15.07363173	    -10.96948380	      4.68411895	    -56.11794056	    -28.91391501	     -2.02606532	     27.54030237	      9.39187550	      7.87105666	     -6.37876113
      3.66500000	     -9.53053643	     -9.79168010	      7.36296853	     -2.72765010	     -0.01994224	      0.46485868	     21.61461278	      8.96153411	     -9.90017653	    -13.16325355	     -7.06976670	     -3.28507886	      5.38559957	     15.79203272	    -10.92174707	      4.59934925	    -57.27649964	    -28.68893193	     -4.14208422	     26.18002345	      9.17262743	      7.83304523	     -6.10571306
      3.67000000	     -9.38572970	     -9.73460017	      7.24046084	     -2.72197051	     -0.01926883	      0.46571672	     20.95032743	      9.12283309	     -9.66334707	    -12.97555023	     -6.75504455	     -3.26933259	      5.40179200	     16.49425016	    -10.84701233	      4.53281675	    -58.33188778	    -28.37426704	     -6.07186824	     24.91745310	      8.95401774	      7.76602531	     -5.82537383
      3.67500000	     -9.24329659	     -9.69372000	      7.10538369	     -2.71627981	     -0.01857012	      0.46661475	     20.28037075	      9.30543660	     -9.47071157	    -12.76251431	     -6.49741084	     -3.26533559	      5.38636722	     17.18511531	    -10.80158240	      4.46891142	    -59.27315227	    -27.99650511	     -7.80670899	     23.93611138	      8.74910235	      7.71089296	     -5.49466954
      3.68000000	     -9.11868981	     -9.50996686	      6.97745814	     -2.71068612	     -0.01778508	      0.46745671	     19.60538254	      9.33035176	     -9.12219722	    -12.55283833	     -6.19993990	     -3.27510315	      5.36748301	     17.85660134	    -10.56966551	      4.41203909	    -60.09892319	    -27.62654411	     -9.36867063	     22.88746857	      8.53608725	      7.50500572	     -5.21526265
      3.68500000	     -9.00480377	     -9.33225924	      6.82496786	     -2.70506977	     -0.01699160	      0.46833576	     18.93190911	      9.36553954	     -8.80568627	    -12.32035897	     -5.93628660	     -3.28252472	      5.33526854	     18.51651598	    -10.35969440	      4.33546566	    -60.81519960	    -27.13689386	    -10.64382670	     22.08735222	      8.34416876	      7.30125639	     -4.89483682
      3.69000000	     -8.90941053	     -9.09337848	      6.67348478	     -2.69950770	     -0.01616302	      0.46920830	     18.26801602	      9.33037472	     -8.45127638	    -12.08202850	     -5.68150499	     -3.31669309	      5.28799028	     19.17021631	    -10.07191103	      4.27004022	    -61.41712278	    -26.58834891	    -11.66085253	     21.47275885	      8.16308716	      7.02876381	     -4.57651863
      3.69500000	     -8.81858092	     -8.84742783	      6.50419313	     -2.69404547	     -0.01532454	      0.47006938	     17.61586919	      9.28390682	     -8.08533295	    -11.84619516	     -5.45942246	     -3.35307912	      5.23048070	     19.82293203	     -9.77537279	      4.19976754	    -61.93333056	    -25.98081616	    -12.44344116	     21.01091693	      7.97362789	      6.75815234	     -4.18910695
      3.70000000	     -8.76945327	     -8.55500518	      6.34817155	     -2.68851831	     -0.01448152	      0.47093771	     16.98738920	      9.17724984	     -7.74969502	    -11.58416206	     -5.23467313	     -3.40146763	      5.18238767	     20.47988812	     -9.42722487	      4.12651199	    -62.30692372	    -25.28936465	    -12.99790494	     20.85037919	      7.84745444	      6.41974365	     -3.88734514
      3.70500000	     -8.73063537	     -8.23016806	      6.16130048	     -2.68305661	     -0.01362157	      0.47178841	     16.37230722	      9.03406829	     -7.36489926	    -11.32960199	     -5.03392845	     -3.44811628	      5.12407360	     21.12195823	     -9.04808405	      4.01167871	    -62.58010342	    -24.56844151	    -13.40384268	     20.76838486	      7.71969181	      6.05968634	     -3.52581438
      3.71000000	     -8.72347113	     -7.91107657	      6.03030969	     -2.67762337	     -0.01277842	      0.47254106	     15.77732818	      8.86568601	     -7.00129843	    -11.03735801	     -4.84648963	     -3.44897028	      5.08640960	     21.80117436	     -8.64086233	      3.96441047	    -62.75471309	    -23.86203771	    -13.70055715	     20.82500984	      7.64030136	      5.69234922	     -3.24686814
      3.71500000	     -8.69653721	     -7.48140434	      5.68265492	     -2.67218316	     -0.01186635	      0.47358454	     15.18007086	      8.64833424	     -6.46517757	    -10.81776926	     -4.68070133	     -3.56139751	      4.97061063	     22.34640072	     -8.23274945	      3.63437447	    -62.79127154	    -22.92981311	    -13.65329428	     20.92660769	      7.50575045	      5.24605077	     -2.66983178
      3.72000000	     -8.70070299	     -7.06492811	      5.44720090	     -2.66680956	     -0.01101388	      0.47446019	     14.61423258	      8.39608538	     -5.97996890	    -10.57328456	     -4.51552954	     -3.66883807	      4.87807690	     22.95198023	     -7.78066240	      3.43177846	    -62.75047440	    -22.01408095	    -13.52880855	     21.11725304	      7.42113374	      4.79357621	     -2.28898558
      3.72500000	     -8.73739231	     -6.60741363	      5.21203605	     -2.66147127	     -0.01017421	      0.47529558	     14.10394378	      8.08144992	     -5.57990263	    -10.35866580	     -4.34748111	     -3.73173742	      4.82574347	     23.56429224	     -7.27740367	      3.21611803	    -62.59564310	    -21.14819381	    -13.37817685	     21.38171278	      7.37158307	      4.29741321	     -1.89389224
      3.73000000	     -8.77534145	     -6.16404989	      4.93292447	     -2.65608372	     -0.00937656	      0.47617789	     13.57267884	      7.78730242	     -5.08681041	    -10.10288385	     -4.16885504	     -3.77225533	      4.76656647	     24.15407733	     -6.82183975	      2.95524629	    -62.35857911	    -20.24359326	    -13.06393972	     21.71617732	      7.33851650	      3.82169088	     -1.46204880
      3.73500000	     -8.81824862	     -5.72275698	      4.66257747	     -2.65074022	     -0.00862922	      0.47700981	     13.06738799	      7.48015735	     -4.63034133	     -9.87173169	     -3.99186924	     -3.81266694	      4.71684193	     24.73637683	     -6.36603071	      2.69539203	    -62.03725332	    -19.35104662	    -12.73972720	     22.04063292	      7.30994683	      3.35554491	     -1.05334923
